<svg xmlns="http://www.w3.org/2000/svg" viewBox="0 0 3000.62 1743.35"><defs><style>.cls-1{fill:#ebf3fa;}.cls-2{fill:#dfebfa;}.cls-3{fill:#eef6ff;}.cls-4{fill:#d1e3fb;}.cls-5{fill:#2b478b;}.cls-6{fill:#f99746;}.cls-7{fill:#ed7d2b;}.cls-8{fill:#f8fcff;}.cls-9{fill:#233862;}.cls-10{fill:#ffb27d;}.cls-11{fill:#ed985f;}.cls-12{fill:#2c3a64;}.cls-13{fill:#9fc1f4;}.cls-14{fill:#fff;}.cls-15{fill:#416299;}.cls-16{fill:#112544;}.cls-17{fill:#f9ddbf;}.cls-18{fill:#ffefe1;}.cls-19{opacity:0.7;}.cls-20{fill:#77a4e5;}.cls-21{fill:#afcdfb;}.cls-22{fill:#163560;}.cls-23{fill:#80a3d8;}.cls-24{fill:#e8945b;}.cls-25{fill:#f2ccaa;}.cls-26{fill:#2e3552;}</style></defs><g id="Layer_2" data-name="Layer 2"><g id="_лой_1" data-name="‘лой_1"><path class="cls-1" d="M2959.14,1506.37c0,.93,0,1.85,0,2.78,0,2-.09,3.9-.16,5.85a243.33,243.33,0,0,1-12.76,70.73c-.35,1-.7,2-1.07,3-14.76,41.2-42.33,81.42-88,121.3q-13.85,12.11-30,24.15c-2.51,1.88-5.08,3.75-7.68,5.64l-77.44,0-1586.67-.5-114.15,0L143,1739s-.63-1.63-1.8-4.78c-6.7-18.07-31-86.06-54.22-180.77-23.9-97.64-45.27-252.94-45.93-415.37q0-8.43,0-16.9C42,928.76,72.75,728.84,163.15,604.76q1.59-2.19,3.22-4.35c1.57-2.08,3.14-4.16,4.71-6.22.7-.93,1.41-1.83,2.13-2.74C422.9,268.52,821.75,269,1014.79,289.55c18.92,2,35.85,4.21,50.46,6.32,8.8,1.26,16.77,2.49,23.82,3.63,275.84,44.48,400.34-94.19,400.34-94.19C1683.86,26.18,1867.77-17.56,2122.25,5.77c31.93,2.9,63.66,7.26,95,13,123.87,22.57,241.69,66.53,342.82,129.11q16.45,10.16,32.26,21,5.7,3.88,11.32,7.88,20.11,14.25,39.13,29.55c71.91,57.88,131.41,127,173.19,205.9a569.94,569.94,0,0,1,62.81,201.15q2.61,22,3.56,44.58v0q1.24,29.61-.43,60.31a692.5,692.5,0,0,1-19.31,127.1v0q-1.26,5.13-2.4,10.22a567.07,567.07,0,0,0-12.52,164.57C2860.53,1211.37,2960,1366.25,2959.14,1506.37Z"/><path class="cls-2" d="M2594.07,738.52h-63.63V597.73l-3-1.68h-19V596H2398.15v.07h-.1v21.11h.1v14.51h-.1v21.1h.1v14.56h-.1v21.11h.1v.08l-11.7-.08V578H2262.6v14h-.06v21.09h.06v18.55h-.06v21.1h.06v14.56h-.06v21.11h.06v13.48h-.06V723h.06V736.5h-.06v21.1h.06v12.69h-.06V783.7h.06v1.46H2123V905.94h-52.15v30.42h-56.24V884H1913.45V741.61h-15.82V727.43h-2.26v14.18h-13.12v0h-65.61V727.43h-2.27v14.16h-17.09v71.59l-85-.4V857h-72V583.84H1426.82v292.6h-65.18V718.22H1148.2V1741.85l1458.5-5.52Z"/><polygon class="cls-2" points="1148.4 904.61 1148.4 1000.55 1148.4 1143.27 1148.4 1734.86 1041.2 1734.86 1041.2 1143.27 1041.2 1000.55 1041.2 904.61 1148.4 904.61"/><rect class="cls-2" x="2148.99" y="728.82" width="3.93" height="57.37"/><rect class="cls-2" x="2215.26" y="679.56" width="6.12" height="111.09"/><rect class="cls-2" x="1440.99" y="563.38" width="2.55" height="20.46"/><rect class="cls-2" x="1495.02" y="563.38" width="2.55" height="20.46"/><rect class="cls-2" x="1618.89" y="563.38" width="2.55" height="20.46"/><rect class="cls-2" x="2274.9" y="562.25" width="1.97" height="15.79"/><rect class="cls-2" x="2367.88" y="562.25" width="1.97" height="15.79"/><rect class="cls-2" x="1570.46" y="563.38" width="2.55" height="20.46"/><rect class="cls-3" x="1179.24" y="764.89" width="25.14" height="42.6"/><rect class="cls-3" x="1863.44" y="775.26" width="25.14" height="42.6"/><rect class="cls-3" x="1461.62" y="618.04" width="25.14" height="42.6"/><rect class="cls-3" x="1511.52" y="618.04" width="25.14" height="42.6"/><rect class="cls-3" x="2468.85" y="948.04" width="25.14" height="42.6"/><rect class="cls-3" x="1191.81" y="971.03" width="25.14" height="42.6"/><path class="cls-2" d="M2847.66,1020.13a566.7,566.7,0,0,1,12.51-164.57c.77-3.39,1.56-6.8,2.4-10.22v0a693.36,693.36,0,0,0,19.31-127.1H2742V1739.83l77.44,0c2.6-1.89,5.17-3.76,7.68-5.64q16.13-12.06,30-24.15c45.67-39.88,73.24-80.1,88-121.3.36-1,.72-2,1.07-3A243.33,243.33,0,0,0,2959,1515c.07-2,.12-3.88.15-5.85,0-.93,0-1.85,0-2.78C2960,1366.25,2860.52,1211.37,2847.66,1020.13Z"/><polygon class="cls-2" points="2742.21 904.61 2742.21 1000.55 2742.21 1143.27 2742.21 1734.86 2643.02 1734.86 2643.02 1143.27 2643.02 1000.55 2643.02 904.61 2742.21 904.61"/><rect class="cls-3" x="2770.75" y="764.89" width="23.26" height="42.6"/><path class="cls-3" d="M2862.58,845.32v0c-.84,3.42-1.63,6.83-2.4,10.22V845.32Z"/><rect class="cls-3" x="2782.38" y="971.03" width="23.26" height="42.6"/><path class="cls-2" d="M1030.79,759.44H977.32V618.67c-.81-.57-1.64-1.12-2.45-1.69H958.94v-.06H866.23V617h-.09V638.1h.09v14.51h-.09v21.1h.09v14.56h-.09v21.1h.09v.07l-9.82-.07V599h-104v14h-.06v21.11h.06v18.55h-.06v21.1h.06v14.56h-.06v21.1h.06v13.47h-.06V744h.06v13.47h-.06v21.1h.06v12.7h-.06v13.4h.06v1.47H635.14V926.88h-43.8v30.41H544.12V904.9h-85V762.54H445.86V748.36H444v14.18H377.83V748.36h-1.9v14.17H361.58v71.58l-71.37-.38v44.16H229.7V604.76H163.15c-90.4,124.08-121.11,324-122,516.42q0,8.46,0,16.9c.66,162.43,22,317.73,45.93,415.37,23.18,94.71,47.52,162.7,54.22,180.77,1.17,3.15,1.8,4.78,1.8,4.78l898.16.33v0Z"/><rect class="cls-2" x="656.97" y="749.75" width="3.3" height="57.37"/><rect class="cls-2" x="712.62" y="700.49" width="5.14" height="111.09"/><rect class="cls-2" x="211.74" y="584.31" width="2.14" height="20.46"/><rect class="cls-2" x="762.71" y="583.19" width="1.65" height="15.79"/><rect class="cls-2" x="840.8" y="583.19" width="1.65" height="15.79"/><path class="cls-2" d="M173.21,591.45v13.33h-2.13V594.19C171.78,593.26,172.49,592.36,173.21,591.45Z"/><rect class="cls-3" x="171.07" y="630.56" width="21.11" height="42.6"/><rect class="cls-3" x="238.47" y="976.68" width="21.11" height="42.6"/><rect class="cls-3" x="356.1" y="1101.39" width="21.11" height="42.6"/><rect class="cls-3" x="99.3" y="895.1" width="21.11" height="42.6"/><rect class="cls-3" x="773.41" y="619.91" width="21.11" height="42.6"/><rect class="cls-3" x="688.47" y="976.68" width="21.11" height="42.6"/><rect class="cls-3" x="860.82" y="1058.79" width="21.11" height="42.6"/><path class="cls-4" d="M1065.25,295.87v1442h-50.46V289.55C1033.7,291.56,1050.63,293.76,1065.25,295.87Z"/><path class="cls-4" d="M2642.76,206.26V1737.88h-50.45V168.83q5.7,3.88,11.32,7.88Q2623.75,191,2642.76,206.26Z"/><polygon class="cls-5" points="1374.17 1713.31 1342.86 1713.31 1334.08 1314.96 1381.9 1314.96 1374.17 1713.31"/><polygon class="cls-5" points="1510.21 1713.31 1205.77 1713.31 1205.77 1685.81 1360.94 1671.82 1510.21 1685.81 1510.21 1713.31"/><path class="cls-5" d="M1176.19,1709a25,25,0,1,1,25,25A25,25,0,0,1,1176.19,1709Z"/><path class="cls-5" d="M1480.64,1709a25,25,0,1,1,25,25A25,25,0,0,1,1480.64,1709Z"/><path class="cls-5" d="M1499.3,1341.1H1216.68a26.13,26.13,0,0,1-26.13-26.13h334.89A26.13,26.13,0,0,1,1499.3,1341.1Z"/><path class="cls-6" d="M1146.45,1315a43.46,43.46,0,0,1-43.46-43.46V924.33c0-68.74,44.94-124.46,100.38-124.46h227c55.43,0,100.37,55.72,100.37,124.46V1315Z"/><path class="cls-7" d="M1150.94,1315a23.83,23.83,0,0,1-23.83-23.83V924.33c0-68.74,44.94-124.46,100.37-124.46h227c55.44,0,100.38,55.72,100.38,124.46V1315Z"/><path class="cls-6" d="M1677,1315H1129.58a27.54,27.54,0,0,1-27.54-27.54h0a27.54,27.54,0,0,1,27.54-27.54H1677a27.54,27.54,0,0,1,27.54,27.54h0A27.54,27.54,0,0,1,1677,1315Z"/><path class="cls-8" d="M1679,209.94s23.65-39.76,80.21-35.34c0,0,82.1-66.27,169.66-8.84,0,0,93.07-14.23,162,12.32,46,17.7,61.14,36.27,61.14,36.27Z"/><path class="cls-8" d="M2030.81,319s13.74-24.24,46.59-21.55c0,0,47.69-40.41,98.54-5.39,0,0,54.06-8.67,94.09,7.52,26.69,10.79,35.51,22.11,35.51,22.11Z"/><path class="cls-8" d="M1154.17,494.72s18.56-32.74,62.93-29.11c0,0,64.42-54.58,133.11-7.27,0,0,73-11.72,127.09,10.14,36.06,14.58,48,29.88,48,29.88Z"/><path class="cls-9" d="M2267.77,1734.39s0-21.46,3.06-28.6,14.27-36.2,14.27-36.2h43.84s8.16,26.51,8.67,35.18,0,29.62,0,29.62Z"/><path class="cls-9" d="M2546.13,1734.39s0-21.46-3.06-28.6-14.27-36.2-14.27-36.2H2485s-8.16,26.51-8.67,35.18,0,29.62,0,29.62Z"/><path class="cls-10" d="M2370.49,529.71s-1.54,47.79-7.66,69.21l-48.42,33.77L2496.66,660l-43.46-60.05s-13.12-64.08-6.24-87.79S2370.49,529.71,2370.49,529.71Z"/><path class="cls-11" d="M2370.23,536.31s14.41,34.69,41.55,33.93,33.33-31.46,33.33-31.46Z"/><path class="cls-12" d="M2354,508.22s-8.76-43.76-14.88-57-11.22-72.39,56.59-75.45c0,0,26,3.06,40.27-5.61,0,0,0,8.67-3.57,11.72a45.08,45.08,0,0,1,41.8,14.79c18.36,20.39-12.23,91.76-10.7,108.58Z"/><path class="cls-10" d="M2408.67,556.83c-19.67-.34-55.87-26.53-55.87-59V447.25c0-11.84,8.26-21.53,18.35-21.53h75c10.1,0,18.36,9.69,18.36,21.53V495C2464.55,529,2431.23,557.23,2408.67,556.83Z"/><path class="cls-12" d="M2352.8,474.27s.1-30.41,24.19-35.08,78,14.82,85.65-7.36S2358.43,410,2352.8,424.19,2352.8,474.27,2352.8,474.27Z"/><path class="cls-5" d="M2273.26,991.09s7.68,234.23-3.79,367.88.08,319.63.08,319.63,36.68,20.23,76.44,0c0,0,43.61-258.19,43.34-319.63-.3-65.44,47.46-357.67,47.46-357.67Z"/><path class="cls-5" d="M2544.55,1678.6s-36.68,20.23-76.44,0c0,0-43.6-258.19-43.33-319.64.13-27.63-8.32-95.74-18.12-165.17-13.41-95-29.35-192.48-29.35-192.48l169.87-10.62s-14,234.64-2.54,368.27S2544.55,1678.6,2544.55,1678.6Z"/><path class="cls-13" d="M2545.14,1030.06s-72.41,14-138.48,14c-28.81,0-60.12-3.16-85-6.5-27.56-3.65-47.32-7.52-47.32-7.52s-14.68,1.28-6-71.1c6.6-55.09,4.53-104.82,3.06-156-.16-5.69,0-12.42.31-19.91,2.81-59.66,20.86-167.07,34.61-172.83,0,0,20.45-7.6,56.57-11.3,0,.7,21,31.35,45.85,34.79,15.46-6.12,27.6-11.33,44.52-33.8A483.53,483.53,0,0,1,2523,613.37s2.6,11.38,12.42,208.79C2539.3,900.35,2566,1030.32,2545.14,1030.06Z"/><path class="cls-9" d="M2424.78,1359c.13-27.63-8.32-95.74-18.12-165.17,10.17-41.48,35-81.39,35-81.39C2473,1200.34,2424.78,1359,2424.78,1359Z"/><path class="cls-13" d="M2204.42,845.2c-1.73,1.44,4.3,16.37,13.17,35.82,18.26,40,48.58,99,48.58,99a175.42,175.42,0,0,1-9.2,27c-51-40.09-83.92-74.19-104.92-100.34-29.51-36.78-35.57-57.87-35.57-57.87C2230.08,617.5,2310,609,2310,609l-9.45,152.82S2209.68,840.83,2204.42,845.2Z"/><path class="cls-10" d="M2260.12,982.91s27.53-25.49,38.75-11.21,13.25,36.7,4.58,35.17-26.5-9.68-29-5.61-14,11.88-17.44,5.69S2260.12,982.91,2260.12,982.91Z"/><path class="cls-10" d="M2266.17,980a175.42,175.42,0,0,1-9.2,27c-51-40.09-83.92-74.19-104.92-100.34,15.83-1.18,38.94-6.84,65.54-25.59C2235.85,921,2266.17,980,2266.17,980Z"/><path class="cls-13" d="M2704.93,848.74s-6.06,21.09-35.57,57.87c-21,26.15-53.9,60.25-104.92,100.34a175.42,175.42,0,0,1-9.2-27s30.32-59,48.59-99c8.87-19.45,14.89-34.38,13.16-35.82-4.08-3.39-59.61-51.64-84.39-73.16l-11.77-10.25-5.68-150.55S2591.33,617.5,2704.93,848.74Z"/><path class="cls-10" d="M2561.28,982.91s-27.52-25.49-38.74-11.21-13.26,36.7-4.59,35.17,26.51-9.68,29.06-5.61,14,11.88,17.43,5.69S2561.28,982.91,2561.28,982.91Z"/><path class="cls-10" d="M2555.23,980a174.67,174.67,0,0,0,9.21,27c51-40.09,83.91-74.19,104.91-100.34-15.83-1.18-38.93-6.84-65.53-25.59C2585.56,921,2555.23,980,2555.23,980Z"/><path class="cls-7" d="M2365.37,587.26A19.33,19.33,0,0,0,2355,599.81s32.46,33.39,53.7,33.9Z"/><path class="cls-7" d="M2408.68,633.71l41.9-48.13s8.65,5.69,8.52,15.06C2459.1,600.64,2426.69,635,2408.68,633.71Z"/><path class="cls-6" d="M2401.12,630.17s-32,276.05-20.84,309.7a230.33,230.33,0,0,0,19.51,42.76,11.33,11.33,0,0,0,19.61,0c8.5-14.74,19.59-36.08,19.59-46.9,0-17.54-24.26-305.76-24.26-305.76Z"/><path class="cls-7" d="M2392.76,616.63s19.32-1.93,31.09-.74a3.27,3.27,0,0,1,2.5,4.84c-3.3,5.94-10,16.23-17.07,16.23C2399.4,637,2384,617.32,2392.76,616.63Z"/><path class="cls-14" d="M2393,524.23s6.13,8.29,16.83,8a20,20,0,0,0,15.73-8S2407.51,521.27,2393,524.23Z"/><polygon class="cls-15" points="2003.48 1073.53 1639.58 1074.14 1693.16 834.04 2057.07 833.43 2003.48 1073.53"/><polygon class="cls-9" points="2014.99 1073.81 1651.09 1074.43 1704.66 834.02 2068.56 833.41 2014.99 1073.81"/><polygon class="cls-16" points="1853.71 1133.67 1778.12 1134.37 1830.45 974.85 1906.05 974.15 1853.71 1133.67"/><rect class="cls-16" x="1731.44" y="1126.76" width="165.09" height="7.6"/><polygon class="cls-14" points="1621.65 1133.58 1308.16 1133.58 1298.39 1061.68 1611.88 1061.68 1621.65 1133.58"/><path class="cls-13" d="M1360.11,1109.67l5.57-29.49h7.2l-8.45,37.69h-6.34l-18.64-37.69h7.17Z"/><path class="cls-13" d="M1405.51,1109.1h-14.6l-1.86,8.77h-6.81l9.12-37.69h5.87l19.39,37.69h-6.83Zm-13.48-5.28H1403l-7.59-15.64Z"/><path class="cls-13" d="M1452.75,1105.6a15.66,15.66,0,0,1-.6,5.12,10.23,10.23,0,0,1-2.33,4,10.65,10.65,0,0,1-4.13,2.66,16.84,16.84,0,0,1-6,1,16.59,16.59,0,0,1-6.45-1.25,16.26,16.26,0,0,1-5.27-3.58,19.36,19.36,0,0,1-3.81-5.6,26.13,26.13,0,0,1-2.06-7.38l-.42-3a22.84,22.84,0,0,1,.09-7.37,14,14,0,0,1,2.34-5.63,11.45,11.45,0,0,1,4.39-3.6,14.54,14.54,0,0,1,6.24-1.27,18.16,18.16,0,0,1,6.08,1,15.38,15.38,0,0,1,4.76,2.69,15.17,15.17,0,0,1,3.38,4.11,19.51,19.51,0,0,1,2,5.2h-6.52a16.11,16.11,0,0,0-1.15-3.21,8.05,8.05,0,0,0-1.77-2.42,7,7,0,0,0-2.56-1.51,10.55,10.55,0,0,0-3.51-.52,7.82,7.82,0,0,0-3.78.84,6.12,6.12,0,0,0-2.46,2.43,10.22,10.22,0,0,0-1.13,3.93,22.47,22.47,0,0,0,.16,5.3l.43,3.11a26.49,26.49,0,0,0,1.18,5.13,14.11,14.11,0,0,0,2.07,3.94,9,9,0,0,0,3,2.56,8.7,8.7,0,0,0,4,.9,10.66,10.66,0,0,0,3.52-.49,5.19,5.19,0,0,0,2.23-1.45,5.51,5.51,0,0,0,1.16-2.36,13,13,0,0,0,.33-3.21Z"/><path class="cls-13" d="M1485.47,1109.1h-14.6l-1.86,8.77h-6.81l9.12-37.69h5.87l19.39,37.69h-6.83Zm-13.48-5.28h10.93l-7.59-15.64Z"/><path class="cls-13" d="M1536.06,1117.87h-6.55l-20.44-26.74,3.63,26.74h-6.55l-5.12-37.69h6.55l20.5,26.85-3.64-26.85h6.49Z"/><path class="cls-13" d="M1571.18,1085.46h-11.75l4.4,32.41h-6.5l-4.4-32.41h-11.65l-.72-5.28h29.9Z"/><polygon class="cls-13" points="1269.52 1133.31 1298.39 1061.68 1308.16 1133.58 1269.52 1133.31"/><polygon class="cls-9" points="953.8 1118.28 960.61 1118.28 960.61 1000.97 890.91 823.13 1015.36 726.7 1011.18 721.31 882.71 820.87 953.8 1002.26 953.8 1118.28"/><path class="cls-9" d="M1029.42,739h0a7,7,0,0,0,1.65-9.69l-10.36-14.62A7,7,0,0,0,1011,713h0a7,7,0,0,0-1.65,9.69l10.36,14.62A7,7,0,0,0,1029.42,739Z"/><path class="cls-9" d="M897.38,821.08a9,9,0,1,0-9,9A9,9,0,0,0,897.38,821.08Z"/><path class="cls-9" d="M924.13,1114.9h68.55a0,0,0,0,1,0,0v6.42a13.1,13.1,0,0,1-13.1,13.1H936.72a12.59,12.59,0,0,1-12.59-12.59v-6.92A0,0,0,0,1,924.13,1114.9Z" transform="translate(1916.81 2249.32) rotate(180)"/><rect class="cls-9" x="950.04" y="1009.28" width="14.4" height="109" transform="translate(1914.47 2127.57) rotate(180)"/><path class="cls-6" d="M1014,840.16c.33.36.65.72,1,1.06l.07.08c.31.36.63.69,1,1,9.31,8.08,40.16-6.39,70-33.09s47.66-55.74,40.67-65.89c-.29-.36-.59-.71-.91-1.07l-.07-.08c-.3-.37-.62-.73-1-1.09A74.3,74.3,0,1,0,1014,840.16Z"/><path class="cls-17" d="M1015,841.23l.07.07c.1.14.21.25.31.37a5.07,5.07,0,0,0,.66.65c9.3,8.07,40.16-6.39,70-33.09s47.67-55.73,40.69-65.88a7.15,7.15,0,0,0-.58-.73,1.82,1.82,0,0,0-.34-.34l-.07-.09c-6.33-6-23.53-.65-43.63,12.37a218.69,218.69,0,0,0-26.62,20.5,233.14,233.14,0,0,0-19,19C1018.36,814.66,1009.23,833.63,1015,841.23Z"/><path class="cls-18" d="M1036.47,794.1a30.31,30.31,0,0,0,19.4,6.94,30.64,30.64,0,0,0,26.21-46.48,218.69,218.69,0,0,0-26.62,20.5A233.14,233.14,0,0,0,1036.47,794.1Z"/><g class="cls-19"><path class="cls-20" d="M1921.49,1522.66s-37.67-43.94-2.33-71.85c0,0,25.82-15.63,46.87-14.36,0,0-29.83,50-20.18,55s29.22-58.13,29.22-58.13,58.74-5.7,77.64,3.39c0,0-50.22,41.1-39.64,43.54s64.82-37.89,64.82-37.89,54.67,9.31,51.76,42.66-21.76,43.65-30,42.77-56.71-19.38-57.77-12.6,28.1,29,48.52,30c0,0-38.55,42.51-64.17,30.24s-27.8-31.72-43.77-39-29.6-7.28-23,.16,35.5,14.67,44.63,30.83,17.32,27-9.18,23.06-69.59-23.39-71.48-45.59Z"/><path class="cls-20" d="M2102.78,1485.91s-148.5-5.72-181.29,36.75c0,0-7.26,21.72-29.57,41.5l-3.48,9.48s25.73-27.13,34.94-28.77C1923.38,1544.87,1909,1492.25,2102.78,1485.91Z"/><path class="cls-20" d="M1891.92,1564.16s-31.88,23.57-34.09,65.69l5.78.52s10.18-43.55,28.58-60.58S1891.92,1564.16,1891.92,1564.16Z"/><path class="cls-20" d="M1805.35,1486.7s52.81-29.57,28.17-69.71c0,0-19.72-24.65-40.85-31,0,0,11.27,59.86,0,61.27s-7.74-67.6-7.74-67.6-55.64-26.76-77.47-24.65c0,0,34.51,58.45,23.24,57s-50-60.56-50-60.56-57-10.56-66.19,23.24,5.63,50.7,14.08,52.81,62.68,1.41,61.27,8.45-38,18.31-58.45,12c0,0,22.53,55.64,52.11,52.82s38.73-21.13,57-22.54,31.69,3.53,22.54,8.45-40.14,1.62-54.93,14.19-26.76,20.32.7,25.95,76.76,2.12,86.62-19Z"/><path class="cls-20" d="M1640.56,1385.3s147.89,47.89,164.79,101.4c0,0-.71,24,14.08,51.41v10.56s-15.49-35.91-23.94-40.84C1795.49,1507.83,1828.59,1461.35,1640.56,1385.3Z"/><path class="cls-20" d="M1819.43,1538.11s22.81,34.63,9.81,76.79l-5.87-1.58s5.69-46.43-6.24-69.78S1819.43,1538.11,1819.43,1538.11Z"/><path class="cls-13" d="M1885.12,1421.13s-79-44.23-42.12-104.25c0,0,29.48-36.86,61.07-46.34,0,0-16.84,89.51,0,91.62s11.59-101.09,11.59-101.09,83.19-40,115.83-36.86c0,0-51.6,87.4-34.75,85.29s74.76-90.56,74.76-90.56,85.3-15.79,99,34.75-8.43,75.82-21.06,79-93.72,2.11-91.62,12.64,56.87,27.38,87.41,17.9c0,0-33.7,83.19-77.93,79s-57.91-31.59-85.29-33.7-47.39,5.26-33.7,12.64,60,2.41,82.14,21.21,40,30.38-1.06,38.81-114.78,3.16-129.52-28.43Z"/><path class="cls-13" d="M2131.53,1269.49s-221.14,71.61-246.41,151.64c0,0,1.05,35.8-21.06,76.87v15.79s23.17-53.7,35.8-61.07C1899.86,1452.72,1850.37,1383.22,2131.53,1269.49Z"/><path class="cls-13" d="M1864.06,1498s-34.1,51.78-14.66,114.82l8.77-2.35s-8.52-69.44,9.33-104.36S1864.06,1498,1864.06,1498Z"/><path class="cls-13" d="M1887,1735.41A136.37,136.37,0,0,0,2023.4,1599H1750.65A136.38,136.38,0,0,0,1887,1735.41Z"/><path class="cls-21" d="M1920.59,1734.36A136.43,136.43,0,0,1,1767.27,1599h33.88A136.4,136.4,0,0,0,1920.59,1734.36Z"/><rect class="cls-20" x="1746.17" y="1599.03" width="280.34" height="4.18"/><path class="cls-20" d="M1828.79,1735.41h127.68a10.93,10.93,0,0,0-10.93-10.94H1839.72a10.93,10.93,0,0,0-10.93,10.94Z"/></g><path class="cls-5" d="M855.06,1742.1h-.52c-3.08,0-5.56-4-5.49-8.95l8.33-574.85,24.52-4.56L861,1733.19C860.81,1738.19,858.21,1742.1,855.06,1742.1Z"/><path class="cls-5" d="M2088.56,1742.1h.52c3.08,0,5.56-4,5.49-8.95l-8.32-574.85-24.53-4.56,20.91,579.45C2082.81,1738.19,2085.41,1742.1,2088.56,1742.1Z"/><rect class="cls-5" x="794.05" y="1134.19" width="1362.53" height="34.68" rx="15.16"/><path class="cls-22" d="M430.57,738.6c-4.67-9,101.95-41.46,103.64,47.48,0,0,199.73-4.91,104.37-116.23-33-38.54-29.62-70.41-28.63-100.07s-20.57-115.89-94.5-107.2c0,0-19.36-7.88-43.52,4.65C417,495.74,293.89,771.41,430.57,738.6Z"/><path class="cls-10" d="M757.11,838s13-19.79,23.48-20.18,29.88-5.82,28.33-1.94-13.58,4.27-14.75,6.6,17.85,5.82,23.29,6.21,18.24,0,17.85,2.71-23.08,14-39.09,12.42-35.81,4.66-35.81,4.66Z"/><path class="cls-13" d="M762.93,860.74S735.61,897.83,699.3,914h-.06c-12.83,5.71-26.8,8.78-41.09,6.68a83.33,83.33,0,0,1-28.85-10.22c-16.59-9.36-30.24-23.26-40.33-35.9-3.05-3.81-5.76-7.51-8.14-10.93a177.7,177.7,0,0,1-11.75-19.15l9.24-158s33.06,7.67,42.77,22.41S671.53,841,678.52,844.44s80.34-13,80.34-13S769.34,843.28,762.93,860.74Z"/><path class="cls-9" d="M295.44,1636.19s-22.38,20.42-18,34.94,24.56,24.18,27.29,41.92,13.65,27.42,23.47,27.42H375s7.23-12.49-10.24-16.25-24.05-24.61-23-44-1.64-45.15-1.64-45.15l-37.12-8.6Z"/><path class="cls-9" d="M484.87,1644.86s-8.05,86.53,1.78,91.37L612.4,1736s0-14.52-20.2-17.74-55.68-15-61.69-41.39S484.87,1644.86,484.87,1644.86Z"/><path class="cls-23" d="M629.3,910.42c-16.59-9.36-30.24-23.26-40.33-35.9-3.05-3.81-5.76-7.51-8.14-10.93,6.94-32.75,17.1-77.8,14.9-49.28C592.88,851.34,621.78,898.77,629.3,910.42Z"/><path class="cls-10" d="M395.26,1024.1c25.88-58,41.71-74.69,38.69-92.7C431.7,918,440.8,681.45,440.8,681.45c3.07-1,9.23-1.81,12.59-2.55a31.59,31.59,0,0,0,23.06-20.06c4.4-12.33,7.9-30.54,7.82-53.37l3.32.66,55.73,11s-1.27,17.54-1.3,34.07c0,.13,0,.27,0,.41a32.06,32.06,0,0,0,23.14,31c7,2,13.16,3.77,13.16,3.77s20.47,58.43,24.38,118.46-37.22,86.1.31,206C641.31,1133.42,381,1056.16,395.26,1024.1Z"/><path class="cls-24" d="M543.32,617.16s-1.27,17.54-1.3,34.07c-31.19-.88-47.68-29.33-54.43-45.1Z"/><path class="cls-10" d="M553.74,632.81S480,634,479.89,588.06s-9.6-76.76,37.51-79.48,56.28,14.8,60,30.14S572.93,631.31,553.74,632.81Z"/><path class="cls-22" d="M551,507.45s-20.21,53.93-51.21,61.9-44.46-.34-44.46-.34,23.78-18.89,28.72-51.87C484.06,517.14,535.77,481.78,551,507.45Z"/><path class="cls-22" d="M546,511.83s15,5.6,21.15,16.52c6,10.69,11.16,24.84,10,42.2,0,0,15.22-36.65-1.88-57.38C557.1,491.18,546,511.83,546,511.83Z"/><path class="cls-1" d="M537.68,604.29A18.55,18.55,0,0,0,553,610.51,13.56,13.56,0,0,0,564.33,603S549.26,599.38,537.68,604.29Z"/><path class="cls-13" d="M388.14,786.08a501.86,501.86,0,0,0,0,58.12c1.25,21,22.51,49.17,25.52,56.13,7.57,17.46,16.1,20.3,16.1,20.3l66,16.19L519,942.5l73.21-21.87s33.34-93.07,19.95-145.46-33.84-88.77-33.84-88.77-59.74,58.49-137.52-5Z"/><path class="cls-25" d="M407.47,852.78c1.24,21,3.18,40.59,6.19,47.55,7.57,17.46,16.1,20.3,16.1,20.3l66,16.19,28.67-8.43s-95.72-14.51-85.12-96.87Z"/><path class="cls-9" d="M587.55,934.76s36.26,112.85,38.58,151.27-69.3,545.78-72.18,563.49c-2.71,16.69-23.44,27.32-23.44,27.32s-9.53,5.62-23.13,1.78c-18.87-5.32-24.84-11.71-24.84-11.71s-28.21-361.85-10.75-491.11,17.67-241,17.67-241Z"/><path class="cls-5" d="M434,931.4s-55.3,74.2-60.46,124.36S365.41,1282.1,354.42,1331s-51.34,143-51.34,295.51c0,0,4.2,8.75,17.15,13.4a139.48,139.48,0,0,0,15.08,4.17,23.7,23.7,0,0,0,26.51-12.58c27.29-54.94,114.2-232.11,118.65-268.88,3.15-26,30.59-198.28,90.45-299.36C585.29,1039,562.1,942.5,562.1,942.5Z"/><path class="cls-14" d="M539.32,605.52s1.28,5.42,14.75,4.58c0,0,11.32-.7,11-6.65C565,603.45,554.07,599.22,539.32,605.52Z"/><path class="cls-9" d="M593.34,917.34s-14.55,11.51-43.46,12.1c-34.54.69-120.11-8.81-120.11-8.81a70.53,70.53,0,0,0-3.65,21.84s104.52,26.37,165.07,3.85C591.19,946.32,599,931.63,593.34,917.34Z"/><path class="cls-14" d="M542.4,941.36c0-9.83,7.07-17.84,15.76-17.84s15.76,8,15.76,17.84-7.07,17.84-15.76,17.84S542.4,951.2,542.4,941.36Zm5.23,0c0,7,4.72,12.61,10.53,12.61s10.54-5.65,10.54-12.61-4.73-12.61-10.54-12.61S547.63,934.41,547.63,941.36Z"/><rect class="cls-7" x="363.62" y="813.91" width="141.98" height="194.36" transform="translate(164.07 1883.6) rotate(-138.95)"/><path class="cls-10" d="M453.92,938.1S493.15,942.68,493,952s-9.78,28.44-14.62,29.29-31.93-25.87-31.93-25.87Z"/><path class="cls-13" d="M440.8,681.44s-52.38,3.67-72.46,52.48-58.18,130.77-58.18,144.55,21.28,56.29,135.57,80.73c0,0,11.82-12.44,11.11-22.27,0,0-71.35-61.28-71.15-68.44.36-13.55,11.69-31.43,74.33-94.09C477.05,757.37,440.8,681.44,440.8,681.44Z"/><rect class="cls-26" y="1734.21" width="3000.62" height="9.14" rx="3.64"/></g></g></svg>